<svg width="116" height="37" viewBox="0 0 116 37" fill="none" xmlns="http://www.w3.org/2000/svg">
<path d="M35.2373 0C38.7012 1.75716e-05 41.5795 0.77581 43.7734 2.42969C45.9549 4.04835 47.5196 6.26258 48.4775 9.02734C49.4202 11.748 49.8828 14.8075 49.8828 18.1924C49.8828 21.5773 49.4202 24.6368 48.4775 27.3574C47.5196 30.1219 45.9555 32.3355 43.7744 33.9541C41.5804 35.6082 38.7015 36.3847 35.2373 36.3848C31.7662 36.3848 28.8701 35.5895 26.6436 33.9033C24.4662 32.2543 22.9033 30.0272 21.9453 27.2627C21.0033 24.5439 20.5401 21.5163 20.54 18.1924C20.54 14.8684 21.0032 11.8409 21.9453 9.12207C22.9034 6.35731 24.4659 4.12958 26.6436 2.48047C28.8701 0.794324 31.7662 0 35.2373 0ZM37.0361 35.3281C36.6522 35.363 36.2576 35.3858 35.8525 35.3975L36.4531 35.3711C36.8475 35.3478 37.2312 35.3131 37.6045 35.2666L37.0361 35.3281ZM39.7188 34.8477C39.3875 34.9408 39.0457 35.022 38.6934 35.0918L39.2148 34.9785C39.5565 34.8971 39.8875 34.8039 40.208 34.6992L39.7188 34.8477ZM43.915 32.5869C43.6813 32.7904 43.4385 32.9847 43.1875 33.1709C43.064 33.2641 42.9383 33.355 42.8096 33.4424L43.1885 33.1719C43.5653 32.8925 43.922 32.5928 44.2598 32.2744L43.915 32.5869ZM34.2354 28.6504C34.4465 28.6943 34.6653 28.7237 34.8916 28.7383L35.2373 28.749L34.8926 28.7383C34.5529 28.7164 34.2303 28.661 33.9248 28.5732L34.2354 28.6504ZM32.54 27.8613C32.623 27.9272 32.7081 27.9893 32.7949 28.0479L32.541 27.8613C32.4582 27.7955 32.3769 27.7264 32.2979 27.6533L32.54 27.8613ZM35.2373 8.61328C34.4764 8.61328 33.8604 8.80414 33.3486 9.15527C32.8308 9.51065 32.3603 10.0717 31.9658 10.9033C31.1852 12.5913 30.7588 14.9975 30.7588 18.1924C30.7588 21.3822 31.1839 23.8055 31.9658 25.5283C32.3581 26.3397 32.8254 26.8888 33.3418 27.2373C33.8542 27.583 34.4729 27.7705 35.2373 27.7705C36.0018 27.7705 36.6131 27.5826 37.1143 27.2402C37.6207 26.8941 38.0775 26.3475 38.4541 25.5352C39.2379 23.8119 39.664 21.3863 39.6641 18.1924C39.6641 14.9951 39.2368 12.5876 38.4551 10.8994L38.4541 10.8965L38.4521 10.8936C38.0737 10.0626 37.6156 9.50491 37.1084 9.15234C36.6078 8.80442 35.9985 8.6133 35.2373 8.61328ZM31.8457 27.1709C31.9172 27.2587 31.9911 27.3424 32.0664 27.4229L31.8467 27.1709C31.7751 27.0831 31.7055 26.9916 31.6377 26.8965L31.8457 27.1709ZM31.2539 26.2832C31.314 26.3928 31.3766 26.4983 31.4404 26.6006L31.2549 26.2832C31.1948 26.1736 31.1364 26.0603 31.0801 25.9434L31.2539 26.2832ZM48.0117 25.5381C47.966 25.7086 47.9193 25.8781 47.8701 26.0459L48.0127 25.5381C48.0584 25.3676 48.1023 25.1957 48.1445 25.0225L48.0117 25.5381ZM30.6377 24.8018C30.6817 24.9367 30.728 25.0687 30.7754 25.1982L30.6387 24.8018C30.5946 24.6667 30.5524 24.529 30.5117 24.3887L30.6377 24.8018ZM48.376 23.9658C48.3408 24.1446 48.3043 24.322 48.2656 24.498L48.377 23.9658C48.4122 23.7869 48.4449 23.6065 48.4766 23.4248L48.376 23.9658ZM29.8613 20.5137C29.8959 20.9807 29.9433 21.4301 30 21.8623C29.9211 21.2608 29.8623 20.6258 29.8262 19.957L29.8613 20.5137ZM48.8193 20.5996C48.8053 20.7946 48.79 20.9884 48.7725 21.1807L48.8203 20.5996C48.8344 20.4044 48.8459 20.2077 48.8564 20.0098L48.8193 20.5996ZM48.8828 16.9873C48.8965 17.3836 48.9043 17.7854 48.9043 18.1924C48.9043 18.6044 48.8969 19.011 48.8828 19.4121L48.8994 18.8066C48.9029 18.6033 48.9043 18.3985 48.9043 18.1924C48.9043 17.7854 48.8965 17.3836 48.8828 16.9873ZM29.7852 17.5879C29.7818 17.7866 29.7803 17.9882 29.7803 18.1924C29.7803 18.6005 29.7872 18.998 29.8008 19.3848L29.7861 18.7969C29.7827 18.598 29.7803 18.3965 29.7803 18.1924C29.7803 17.7841 29.7872 17.3865 29.8008 17L29.7852 17.5879ZM29.9629 14.8125C29.902 15.3267 29.8566 15.8655 29.8262 16.4287L29.8623 15.874C29.9029 15.327 29.9582 14.8046 30.0293 14.3066L29.9629 14.8125ZM48.8193 15.7852C48.8334 15.9801 48.8459 16.1764 48.8564 16.374L48.8203 15.7852C48.8062 15.5898 48.7901 15.3958 48.7725 15.2031L48.8193 15.7852ZM48.376 12.4189C48.4112 12.5979 48.4449 12.7782 48.4766 12.96L48.377 12.4189C48.3418 12.2401 48.3043 12.0628 48.2656 11.8867L48.376 12.4189ZM30.6377 11.6143C30.5937 11.7475 30.5523 11.8838 30.5117 12.0225L30.6387 11.6143C30.6826 11.481 30.728 11.3504 30.7754 11.2227L30.6377 11.6143ZM48.0117 10.8467C48.0574 11.0173 48.1023 11.189 48.1445 11.3623L48.0127 10.8467C47.967 10.676 47.9194 10.5068 47.8701 10.3389L48.0117 10.8467ZM31.2539 10.1436C31.194 10.2547 31.1362 10.3697 31.0801 10.4883L31.2549 10.1436C31.3149 10.0321 31.3766 9.9243 31.4404 9.82031L31.2539 10.1436ZM31.8457 9.24023C31.7744 9.32923 31.7052 9.42216 31.6377 9.51855L31.8467 9.24023C31.918 9.15123 31.9913 9.06598 32.0664 8.98438L31.8457 9.24023ZM32.54 8.53809C32.4573 8.60489 32.3768 8.67578 32.2979 8.75L32.541 8.53809C32.6238 8.47126 32.7084 8.40803 32.7949 8.34863L32.54 8.53809ZM35.2373 7.63574C34.7696 7.63574 34.3319 7.6946 33.9248 7.81348L34.2363 7.73535C34.5529 7.66853 34.8867 7.63574 35.2373 7.63574ZM43.1875 3.21289C43.5642 3.49225 43.922 3.79101 44.2598 4.10938L43.916 3.79785C43.6821 3.59423 43.4397 3.39917 43.1885 3.21289C43.065 3.11972 42.9383 3.02973 42.8096 2.94238L43.1875 3.21289ZM39.2139 1.40625C39.3983 1.45021 39.5795 1.49809 39.7578 1.54883C39.4143 1.45107 39.0597 1.36459 38.6934 1.29199L39.2139 1.40625ZM36.4521 1.0127C36.8468 1.03597 37.2309 1.0716 37.6045 1.11816L37.0371 1.05664C36.6528 1.02169 36.258 0.997969 35.8525 0.986328L36.4521 1.0127Z" fill="#FEFCF8"/>
<path d="M17.0146 0.978027C17.1759 0.978027 17.3075 1.10868 17.3075 1.27002V35.1157C17.3075 35.2771 17.176 35.4077 17.0146 35.4077H7.18449C7.02307 35.4077 6.89152 35.2771 6.89152 35.1157V9.93963C6.89152 8.81441 6.40704 7.74367 5.56183 7.00088L0.267495 2.34814C-0.2746 1.87176 0.0624246 0.978027 0.784096 0.978027H17.0146Z" fill="#FEFCF8"/>
<rect x="53.0894" y="0.978027" width="9.68109" height="34.4268" rx="0.978078" fill="#FEFCF8"/>
<path d="M84.1171 1.02566C84.9113 1.02925 85.3703 1.92778 84.9078 2.57335L74.1228 17.6273C73.8797 17.9666 73.8788 18.4228 74.1204 18.7632L84.8454 33.8658C85.3053 34.5134 84.8422 35.4102 84.0479 35.4102H74.3702C74.0371 35.4102 73.7269 35.2407 73.547 34.9604L62.779 18.1802C62.7784 18.1792 62.7776 18.1784 62.7767 18.1777L62.7723 18.1744C62.7711 18.1735 62.7707 18.1719 62.7714 18.1706L62.7716 18.1702C62.7719 18.1695 62.7719 18.1685 62.7714 18.1678C62.7707 18.1668 62.7709 18.1655 62.7718 18.1647L62.777 18.1602C62.7777 18.1595 62.7783 18.1588 62.7788 18.158L73.6134 1.42834C73.7945 1.14867 74.1055 0.980438 74.4387 0.981944L84.1171 1.02566Z" fill="#FEFCF8"/>
<path d="M99.7573 35.4064C91.384 35.4064 83.1367 29.5008 83.1367 18.1922C83.1367 6.88362 91.384 0.978027 99.7573 0.978027C106.403 0.978027 113.106 4.6714 115.642 12.3283C115.843 12.9359 115.376 13.5431 114.735 13.5431H106.16C105.786 13.5431 105.45 13.3269 105.261 13.0042C103.986 10.8174 102.034 9.89924 99.7573 9.89924C95.6651 9.89924 93.0839 12.9149 93.0839 18.1922C93.0839 23.4695 95.6651 26.4852 99.7573 26.4852C102.272 26.4852 104.081 25.3464 105.284 22.817C105.455 22.4573 105.81 22.213 106.208 22.213H114.777C115.404 22.213 115.869 22.7978 115.695 23.4001C113.345 31.5136 106.608 35.4064 99.7573 35.4064Z" fill="#FEFCF8"/>
</svg>
