<svg xmlns="http://www.w3.org/2000/svg" viewBox="0 0 124 124" width="124" height="124" role="img" aria-label="StrideScale">
  <path fill="#ff5757" fill-rule="evenodd" d="M 124.00 62.00 C 124.00 71.97 124.27 82.03 123.47 91.99 C 123.18 95.51 122.73 99.03 121.86 102.46 C 120.66 107.15 118.61 111.69 115.15 115.15 C 111.69 118.61 107.15 120.66 102.46 121.86 C 99.03 122.73 95.51 123.18 91.99 123.47 C 82.03 124.27 71.97 124.00 62.00 124.00 C 52.03 124.00 41.97 124.27 32.01 123.47 C 28.49 123.18 24.97 122.73 21.54 121.86 C 16.85 120.66 12.31 118.61 8.85 115.15 C 5.39 111.69 3.34 107.15 2.14 102.46 C 1.27 99.03 0.82 95.51 0.53 91.99 C -0.27 82.03 0.00 71.97 0.00 62.00 C 0.00 52.03 -0.27 41.97 0.53 32.01 C 0.82 28.49 1.27 24.97 2.14 21.54 C 3.34 16.85 5.39 12.31 8.85 8.85 C 12.31 5.39 16.85 3.34 21.54 2.14 C 24.97 1.27 28.49 0.82 32.01 0.53 C 41.97 -0.27 52.03 0.00 62.00 0.00 C 71.97 0.00 82.03 -0.27 91.99 0.53 C 95.51 0.82 99.03 1.27 102.46 2.14 C 107.15 3.34 111.69 5.39 115.15 8.85 C 118.61 12.31 120.66 16.85 121.86 21.54 C 122.73 24.97 123.18 28.49 123.47 32.01 C 124.27 41.97 124.00 52.03 124.00 62.00 Z M 30.31 104.14 A 3 3 0 0 0 34.24 102.53 L 47.51 70.66 A 3 3 0 0 1 52.73 70.08 L 62.89 84.48 A 3 3 0 0 0 67.42 84.92 L 109.83 44.35 A 3 3 0 0 0 109.93 40.1 L 98.29 27.94 A 3 3 0 0 0 94.05 27.84 L 70.79 50.09 A 3 3 0 0 1 66.26 49.65 L 47.55 23.14 A 3 3 0 0 0 42.33 23.72 L 13.15 93.74 A 3 3 0 0 0 14.77 97.67 Z"/>
</svg>
